<svg xmlns="http://www.w3.org/2000/svg" xmlns:xlink="http://www.w3.org/1999/xlink" viewBox="0 0 1920 1080" width="286" height="161" preserveAspectRatio="xMidYMid meet" style="width: 100%; height: 100%; transform: translate3d(0px, 0px, 0px); content-visibility: visible;"><defs><clipPath id="__lottie_element_2"><rect width="1920" height="1080" x="0" y="0"/></clipPath></defs><g clip-path="url(#__lottie_element_2)"><g transform="matrix(1,0,0,1,856,540)" opacity="1" style="display: block;"><g opacity="1" transform="matrix(1,0,0,1,0,0)"><path stroke-linecap="butt" stroke-linejoin="miter" fill-opacity="0" stroke-miterlimit="4" stroke="rgb(0,0,0)" stroke-opacity="1" stroke-width="30" d=" M-622,86 C-622,86 -179.18600463867188,299.8710021972656 144,110 C304,16 263.0509948730469,-187.8679962158203 101.35600280761719,-205.4770050048828 C-32,-220 -167.33900451660156,-142.71099853515625 -258,-4 C-458,302 -116,502 312.0010070800781,298 C677.2540283203125,123.90699768066406 660.8729858398438,110.4990005493164 819.5900268554688,106.26000213623047"/></g></g><g transform="matrix(0.06298062205314636,0.9980147480964661,-0.9980147480964661,0.06298062205314636,1675.572998046875,646.260986328125)" opacity="1" style="display: block;"><path fill="rgb(0,0,0)" fill-opacity="1" d=" M6.1232337864698064e-15,-100 C6.1232337864698064e-15,-100 86.6025390625,50 86.6025390625,50 C86.6025390625,50 -86.6025390625,50 -86.6025390625,50 C-86.6025390625,50 6.1232337864698064e-15,-100 6.1232337864698064e-15,-100z"/></g></g></svg>