<!-- <svg width="60" height="39" viewBox="0 0 60 39" fill="none" xmlns="http://www.w3.org/2000/svg">
<path d="M5.43942 39H0L35.4952 0H40.9247L5.43942 39Z" fill="#EFB93F"/>
<path d="M24.5048 39H12.1172L47.6025 0H60L24.5048 39Z" fill="#EFB93F"/>
<path d="M50.3979 24.3735H45.0479V29.7129H50.3979V24.3735Z" fill="#16191E"/>
<path d="M59.2817 24.3735H53.9316V29.7129H59.2817V24.3735Z" fill="#16191E"/>
<path d="M50.3979 32.7529H45.0479V38.0923H50.3979V32.7529Z" fill="#16191E"/>
<path d="M59.2817 32.7529H53.9316V38.0923H59.2817V32.7529Z" fill="#16191E"/>
</svg> -->


<svg xmlns="http://www.w3.org/2000/svg" width="400" height="400" viewBox="0 0 124 124" fill="none">
<rect width="124" height="124" rx="24" fill="#F97316"/>
<path d="M19.375 36.7818V100.625C19.375 102.834 21.1659 104.625 23.375 104.625H87.2181C90.7818 104.625 92.5664 100.316 90.0466 97.7966L26.2034 33.9534C23.6836 31.4336 19.375 33.2182 19.375 36.7818Z" fill="white"/>
<circle cx="63.2109" cy="37.5391" r="18.1641" fill="black"/>
<rect opacity="0.4" x="81.1328" y="80.7198" width="17.5687" height="17.3876" rx="4" transform="rotate(-45 81.1328 80.7198)" fill="#FDBA74"/>
</svg>